<svg id="visual" viewBox="0 0 900 600" width="900" height="600" xmlns="http://www.w3.org/2000/svg" xmlns:xlink="http://www.w3.org/1999/xlink" version="1.1"><rect x="0" y="0" width="900" height="600" fill="#001122"></rect><path d="M0 428L16.7 431.3C33.3 434.7 66.7 441.3 100 442.3C133.3 443.3 166.7 438.7 200 441.3C233.3 444 266.7 454 300 455.7C333.3 457.3 366.7 450.7 400 449.2C433.3 447.7 466.7 451.3 500 455C533.3 458.7 566.7 462.3 600 456.7C633.3 451 666.7 436 700 428.8C733.3 421.7 766.7 422.3 800 422C833.3 421.7 866.7 420.3 883.3 419.7L900 419L900 601L883.3 601C866.7 601 833.3 601 800 601C766.7 601 733.3 601 700 601C666.7 601 633.3 601 600 601C566.7 601 533.3 601 500 601C466.7 601 433.3 601 400 601C366.7 601 333.3 601 300 601C266.7 601 233.3 601 200 601C166.7 601 133.3 601 100 601C66.7 601 33.3 601 16.7 601L0 601Z" fill="#f7caca"></path><path d="M0 456L16.7 453.5C33.3 451 66.7 446 100 452.2C133.3 458.3 166.7 475.7 200 479C233.3 482.3 266.7 471.7 300 472.2C333.3 472.7 366.7 484.3 400 488C433.3 491.7 466.7 487.3 500 487C533.3 486.7 566.7 490.3 600 489.5C633.3 488.7 666.7 483.3 700 476.8C733.3 470.3 766.7 462.7 800 459C833.3 455.3 866.7 455.7 883.3 455.8L900 456L900 601L883.3 601C866.7 601 833.3 601 800 601C766.7 601 733.3 601 700 601C666.7 601 633.3 601 600 601C566.7 601 533.3 601 500 601C466.7 601 433.3 601 400 601C366.7 601 333.3 601 300 601C266.7 601 233.3 601 200 601C166.7 601 133.3 601 100 601C66.7 601 33.3 601 16.7 601L0 601Z" fill="#ffb1a8"></path><path d="M0 512L16.7 513.3C33.3 514.7 66.7 517.3 100 513.2C133.3 509 166.7 498 200 491.2C233.3 484.3 266.7 481.7 300 480.3C333.3 479 366.7 479 400 481.3C433.3 483.7 466.7 488.3 500 490C533.3 491.7 566.7 490.3 600 488.2C633.3 486 666.7 483 700 483.2C733.3 483.3 766.7 486.7 800 488.8C833.3 491 866.7 492 883.3 492.5L900 493L900 601L883.3 601C866.7 601 833.3 601 800 601C766.7 601 733.3 601 700 601C666.7 601 633.3 601 600 601C566.7 601 533.3 601 500 601C466.7 601 433.3 601 400 601C366.7 601 333.3 601 300 601C266.7 601 233.3 601 200 601C166.7 601 133.3 601 100 601C66.7 601 33.3 601 16.7 601L0 601Z" fill="#ff9a80"></path><path d="M0 527L16.7 525.2C33.3 523.3 66.7 519.7 100 521.3C133.3 523 166.7 530 200 532.3C233.3 534.7 266.7 532.3 300 532.8C333.3 533.3 366.7 536.7 400 537.5C433.3 538.3 466.7 536.7 500 534.3C533.3 532 566.7 529 600 526.8C633.3 524.7 666.7 523.3 700 523.8C733.3 524.3 766.7 526.7 800 524.7C833.3 522.7 866.7 516.3 883.3 513.2L900 510L900 601L883.3 601C866.7 601 833.3 601 800 601C766.7 601 733.3 601 700 601C666.7 601 633.3 601 600 601C566.7 601 533.3 601 500 601C466.7 601 433.3 601 400 601C366.7 601 333.3 601 300 601C266.7 601 233.3 601 200 601C166.7 601 133.3 601 100 601C66.7 601 33.3 601 16.7 601L0 601Z" fill="#ff8652"></path><path d="M0 568L16.7 564.8C33.3 561.7 66.7 555.3 100 555.8C133.3 556.3 166.7 563.7 200 563.8C233.3 564 266.7 557 300 555.3C333.3 553.7 366.7 557.3 400 560.7C433.3 564 466.7 567 500 564.7C533.3 562.3 566.7 554.7 600 553C633.3 551.3 666.7 555.7 700 555.7C733.3 555.7 766.7 551.3 800 549.2C833.3 547 866.7 547 883.3 547L900 547L900 601L883.3 601C866.7 601 833.3 601 800 601C766.7 601 733.3 601 700 601C666.7 601 633.3 601 600 601C566.7 601 533.3 601 500 601C466.7 601 433.3 601 400 601C366.7 601 333.3 601 300 601C266.7 601 233.3 601 200 601C166.7 601 133.3 601 100 601C66.7 601 33.3 601 16.7 601L0 601Z" fill="#f7770f"></path></svg>